<?xml version="1.0" standalone="no"?><svg xmlns="http://www.w3.org/2000/svg" viewBox="0 0 1440 320"><path fill="#5000ca" fill-opacity="1" d="M0,64L36.9,128L73.8,224L110.8,32L147.7,224L184.6,320L221.5,64L258.5,64L295.4,128L332.3,256L369.2,32L406.2,192L443.1,288L480,224L516.9,160L553.8,288L590.8,320L627.7,224L664.6,32L701.5,160L738.5,96L775.4,160L812.3,288L849.2,128L886.2,320L923.1,32L960,32L996.9,128L1033.8,224L1070.8,128L1107.7,256L1144.6,64L1181.5,256L1218.5,192L1255.4,96L1292.3,288L1329.2,288L1366.2,64L1403.1,96L1440,64L1440,0L1403.1,0L1366.2,0L1329.2,0L1292.3,0L1255.4,0L1218.5,0L1181.5,0L1144.6,0L1107.7,0L1070.8,0L1033.8,0L996.9,0L960,0L923.1,0L886.2,0L849.2,0L812.3,0L775.4,0L738.5,0L701.5,0L664.6,0L627.7,0L590.8,0L553.8,0L516.9,0L480,0L443.1,0L406.2,0L369.2,0L332.3,0L295.4,0L258.5,0L221.5,0L184.6,0L147.7,0L110.8,0L73.8,0L36.9,0L0,0Z"></path></svg>