<?xml version="1.0" standalone="no"?>
<svg viewBox="0 0 200 200" xmlns="http://www.w3.org/2000/svg">
  <path fill="#0F62FE" d="M5.9,-24.2C6.6,-9.8,5.6,-6.2,13.5,-4C21.4,-1.7,38.3,-0.9,51.2,7.4C64.1,15.7,72.9,31.5,64.4,32.5C55.8,33.6,29.7,19.9,16.1,26.9C2.4,33.8,1.2,61.4,-1.3,63.7C-3.8,65.9,-7.7,42.9,-18.5,34.3C-29.3,25.8,-47.2,31.7,-46.4,28.3C-45.6,25,-26.3,12.5,-27.1,-0.5C-28,-13.5,-49.2,-27.1,-56.1,-41.1C-63.1,-55.1,-55.8,-69.6,-44.1,-77.7C-32.4,-85.7,-16.2,-87.3,-6.8,-75.5C2.6,-63.7,5.1,-38.5,5.9,-24.2Z" transform="translate(100 100)" />
</svg>
