<?xml version="1.0" standalone="no"?>
<svg viewBox="0 0 200 200" xmlns="http://www.w3.org/2000/svg">
  <path fill="#24A148" d="M7.5,-27.4C7.9,-12.8,5.1,-7.1,15.9,-4C26.7,-0.9,51.1,-0.4,64.9,8C78.7,16.4,81.8,32.7,69.3,32.9C56.8,33,28.7,17,14.5,17.6C0.3,18.3,0.2,35.7,-7.8,49.2C-15.7,62.6,-31.4,72.1,-36.6,66.2C-41.7,60.3,-36.3,39.1,-43.8,25.5C-51.3,11.9,-71.6,6,-78.5,-4C-85.3,-13.9,-78.7,-27.7,-69.4,-38.2C-60.1,-48.6,-48.1,-55.6,-36.1,-63.4C-24.1,-71.2,-12.1,-79.8,-4.2,-72.5C3.6,-65.1,7.2,-41.9,7.5,-27.4Z" transform="translate(100 100)" />
</svg>
