<?xml version="1.0" standalone="no"?>
<svg viewBox="0 0 200 200" xmlns="http://www.w3.org/2000/svg">
  <path fill="#FF0066" d="M19.5,-39.7C23,-28,22.2,-18.9,32.3,-10.7C42.3,-2.5,63.4,4.8,65.5,11.4C67.7,18,50.9,23.8,41.6,37.7C32.2,51.6,30.1,73.6,22.3,75.8C14.5,78,0.9,60.5,-3.9,44.7C-8.7,28.9,-4.9,14.9,-8.2,8.5C-11.5,2.1,-22,3.4,-32,-1.4C-42,-6.2,-51.5,-17,-46.8,-18.9C-42.2,-20.9,-23.3,-13.8,-13.1,-22.5C-2.9,-31.2,-1.5,-55.6,3.2,-60.6C8,-65.7,15.9,-51.4,19.5,-39.7Z" transform="translate(100 100)" />
</svg>
