<svg xmlns="http://www.w3.org/2000/svg" version="1.1" xmlns:xlink="http://www.w3.org/1999/xlink" xmlns:svgjs="http://svgjs.dev/svgjs" width="1440" height="560" preserveAspectRatio="none" viewBox="0 0 1440 560"><g mask="url(&quot;#SvgjsMask1712&quot;)" fill="none"><rect width="1440" height="560" x="0" y="0" fill="#0e2a47"></rect><g mask="url(&quot;#SvgjsMask1713&quot;)"><path d="M18 270L54 234L90 234L126 234L162 234L198 234L234 234L270 234L306 234L342 234L378 234M846 270L882 234L918 234L954 234L990 234L1026 234L1062 234L1098 234L1134 234M630 234L666 198M774 270L810 306L846 306M450 306L486 270M702 234L738 198M-18 270L18 270L54 270L90 270L126 270L162 270L198 270L234 270L270 306L306 306L342 306L378 306L414 306L450 306L486 306L522 306L558 270L594 270L630 234L666 234L702 234L738 234L774 270L810 270L846 270L882 270" stroke="rgba(221, 237, 10, 1)" stroke-width="6"></path><path d="M873 270 a9 9 0 1 0 18 0 a9 9 0 1 0 -18 0zM369 234 a9 9 0 1 0 18 0 a9 9 0 1 0 -18 0zM1125 234 a9 9 0 1 0 18 0 a9 9 0 1 0 -18 0zM657 198 a9 9 0 1 0 18 0 a9 9 0 1 0 -18 0zM837 306 a9 9 0 1 0 18 0 a9 9 0 1 0 -18 0zM477 270 a9 9 0 1 0 18 0 a9 9 0 1 0 -18 0zM729 198 a9 9 0 1 0 18 0 a9 9 0 1 0 -18 0z" fill="rgba(221, 237, 10, 1)"></path><path d="M270 378L306 342L342 342M414 378L450 342L486 342L522 342M342 378L378 414M918 378L954 342L990 342L1026 342L1062 342M198 378L234 342L270 342M162 342L198 306M450 378L486 414L522 414L558 414M-18 306L18 306L54 306L90 306L126 306L162 342L198 378L234 378L270 378L306 378L342 378L378 378L414 378L450 378L486 378L522 378L558 378L594 414L630 414L666 414L702 414L738 414L774 378L810 378L846 378L882 378L918 378L954 378L990 378" stroke="rgba(237, 29, 10, 1)" stroke-width="6"></path><path d="M981 378 a9 9 0 1 0 18 0 a9 9 0 1 0 -18 0zM333 342 a9 9 0 1 0 18 0 a9 9 0 1 0 -18 0zM513 342 a9 9 0 1 0 18 0 a9 9 0 1 0 -18 0zM369 414 a9 9 0 1 0 18 0 a9 9 0 1 0 -18 0zM1053 342 a9 9 0 1 0 18 0 a9 9 0 1 0 -18 0zM261 342 a9 9 0 1 0 18 0 a9 9 0 1 0 -18 0zM189 306 a9 9 0 1 0 18 0 a9 9 0 1 0 -18 0zM549 414 a9 9 0 1 0 18 0 a9 9 0 1 0 -18 0z" fill="rgba(237, 29, 10, 1)"></path><path d="M90 198L126 162L162 162L198 162M-18 234L18 198L54 198L90 198L126 198" stroke="rgba(10, 47, 237, 1)" stroke-width="6"></path><path d="M117 198 a9 9 0 1 0 18 0 a9 9 0 1 0 -18 0zM189 162 a9 9 0 1 0 18 0 a9 9 0 1 0 -18 0z" fill="rgba(10, 47, 237, 1)"></path><path d="M846 414L882 450L918 450M234 450L270 414L306 414L342 414M414 450L450 414M198 414L234 414M774 450L810 414M810 450L846 450M-18 342L18 342L54 342L90 342L126 342L162 378L198 414L234 450L270 450L306 450L342 450L378 450L414 450L450 450L486 450L522 450L558 450L594 450L630 450L666 450L702 450L738 450L774 450L810 450L846 414L882 414L918 414" stroke="rgba(10, 47, 237, 1)" stroke-width="6"></path><path d="M909 414 a9 9 0 1 0 18 0 a9 9 0 1 0 -18 0zM909 450 a9 9 0 1 0 18 0 a9 9 0 1 0 -18 0zM333 414 a9 9 0 1 0 18 0 a9 9 0 1 0 -18 0zM441 414 a9 9 0 1 0 18 0 a9 9 0 1 0 -18 0zM225 414 a9 9 0 1 0 18 0 a9 9 0 1 0 -18 0zM801 414 a9 9 0 1 0 18 0 a9 9 0 1 0 -18 0zM837 450 a9 9 0 1 0 18 0 a9 9 0 1 0 -18 0z" fill="rgba(10, 47, 237, 1)"></path><path d="M-18 198L18 162L54 162" stroke="rgba(221, 237, 10, 1)" stroke-width="6"></path><path d="M45 162 a9 9 0 1 0 18 0 a9 9 0 1 0 -18 0z" fill="rgba(221, 237, 10, 1)"></path><path d="M1278 414L1314 450M90 378L126 414L162 450L198 486M954 486L990 450L1026 414L1062 414L1098 414L1134 414L1170 414L1206 414L1242 414L1278 378L1314 378M1134 450L1170 486M1098 450L1134 486M1206 450L1242 486L1278 486L1314 486M54 378L90 414M1026 486L1062 486L1098 486M18 378L54 414L90 450L126 450L162 486M-18 378L18 378L54 378L90 378L126 378L162 414L198 450L234 486L270 486L306 486L342 486L378 486L414 486L450 486L486 486L522 486L558 486L594 486L630 486L666 486L702 486L738 486L774 486L810 486L846 486L882 486L918 486L954 486L990 486L1026 486L1062 450L1098 450L1134 450L1170 450L1206 450L1242 450L1278 414L1314 414" stroke="rgba(221, 237, 10, 1)" stroke-width="6"></path><path d="M1305 414 a9 9 0 1 0 18 0 a9 9 0 1 0 -18 0zM1305 450 a9 9 0 1 0 18 0 a9 9 0 1 0 -18 0zM189 486 a9 9 0 1 0 18 0 a9 9 0 1 0 -18 0zM1305 378 a9 9 0 1 0 18 0 a9 9 0 1 0 -18 0zM1161 486 a9 9 0 1 0 18 0 a9 9 0 1 0 -18 0zM1125 486 a9 9 0 1 0 18 0 a9 9 0 1 0 -18 0zM1305 486 a9 9 0 1 0 18 0 a9 9 0 1 0 -18 0zM81 414 a9 9 0 1 0 18 0 a9 9 0 1 0 -18 0zM1089 486 a9 9 0 1 0 18 0 a9 9 0 1 0 -18 0zM153 486 a9 9 0 1 0 18 0 a9 9 0 1 0 -18 0z" fill="rgba(221, 237, 10, 1)"></path><path d="M450 162L486 126L522 90L558 90L594 90M774 126L810 162L846 162L882 162L918 162L954 162L990 162L1026 162L1062 162L1098 162L1134 162L1170 162L1206 162L1242 162M234 126L270 162L306 162L342 198L378 198L414 198L450 234L486 234M126 126L162 90L198 90L234 90L270 90M414 162L450 126M378 162L414 126M918 126L954 90M-18 162L18 126L54 126L90 126L126 126L162 126L198 126L234 126L270 126L306 126L342 162L378 162L414 162L450 162L486 162L522 126L558 126L594 126L630 126L666 126L702 126L738 126L774 126L810 126L846 126L882 126L918 126L954 126L990 126L1026 126L1062 126" stroke="rgba(237, 29, 10, 1)" stroke-width="6"></path><path d="M1053 126 a9 9 0 1 0 18 0 a9 9 0 1 0 -18 0zM585 90 a9 9 0 1 0 18 0 a9 9 0 1 0 -18 0zM1233 162 a9 9 0 1 0 18 0 a9 9 0 1 0 -18 0zM477 234 a9 9 0 1 0 18 0 a9 9 0 1 0 -18 0zM261 90 a9 9 0 1 0 18 0 a9 9 0 1 0 -18 0zM441 126 a9 9 0 1 0 18 0 a9 9 0 1 0 -18 0zM405 126 a9 9 0 1 0 18 0 a9 9 0 1 0 -18 0zM945 90 a9 9 0 1 0 18 0 a9 9 0 1 0 -18 0z" fill="rgba(237, 29, 10, 1)"></path></g></g><defs><mask id="SvgjsMask1712"><rect width="1440" height="560" fill="#ffffff"></rect></mask><mask id="SvgjsMask1713"><rect width="1440" height="560" fill="white"></rect><path d="M877.5 270 a4.5 4.5 0 1 0 9 0 a4.5 4.5 0 1 0 -9 0zM373.5 234 a4.5 4.5 0 1 0 9 0 a4.5 4.5 0 1 0 -9 0zM1129.5 234 a4.5 4.5 0 1 0 9 0 a4.5 4.5 0 1 0 -9 0zM661.5 198 a4.5 4.5 0 1 0 9 0 a4.5 4.5 0 1 0 -9 0zM841.5 306 a4.5 4.5 0 1 0 9 0 a4.5 4.5 0 1 0 -9 0zM481.5 270 a4.5 4.5 0 1 0 9 0 a4.5 4.5 0 1 0 -9 0zM733.5 198 a4.5 4.5 0 1 0 9 0 a4.5 4.5 0 1 0 -9 0z" fill="black"></path><path d="M985.5 378 a4.5 4.5 0 1 0 9 0 a4.5 4.5 0 1 0 -9 0zM337.5 342 a4.5 4.5 0 1 0 9 0 a4.5 4.5 0 1 0 -9 0zM517.5 342 a4.5 4.5 0 1 0 9 0 a4.5 4.5 0 1 0 -9 0zM373.5 414 a4.5 4.5 0 1 0 9 0 a4.5 4.5 0 1 0 -9 0zM1057.5 342 a4.5 4.5 0 1 0 9 0 a4.5 4.5 0 1 0 -9 0zM265.5 342 a4.5 4.5 0 1 0 9 0 a4.5 4.5 0 1 0 -9 0zM193.5 306 a4.5 4.5 0 1 0 9 0 a4.5 4.5 0 1 0 -9 0zM553.5 414 a4.5 4.5 0 1 0 9 0 a4.5 4.5 0 1 0 -9 0z" fill="black"></path><path d="M121.5 198 a4.5 4.5 0 1 0 9 0 a4.5 4.5 0 1 0 -9 0zM193.5 162 a4.5 4.5 0 1 0 9 0 a4.5 4.5 0 1 0 -9 0z" fill="black"></path><path d="M913.5 414 a4.5 4.5 0 1 0 9 0 a4.5 4.5 0 1 0 -9 0zM913.5 450 a4.5 4.5 0 1 0 9 0 a4.5 4.5 0 1 0 -9 0zM337.5 414 a4.5 4.5 0 1 0 9 0 a4.5 4.5 0 1 0 -9 0zM445.5 414 a4.5 4.5 0 1 0 9 0 a4.5 4.5 0 1 0 -9 0zM229.5 414 a4.5 4.5 0 1 0 9 0 a4.5 4.5 0 1 0 -9 0zM805.5 414 a4.5 4.5 0 1 0 9 0 a4.5 4.5 0 1 0 -9 0zM841.5 450 a4.5 4.5 0 1 0 9 0 a4.5 4.5 0 1 0 -9 0z" fill="black"></path><path d="M49.5 162 a4.5 4.5 0 1 0 9 0 a4.5 4.5 0 1 0 -9 0z" fill="black"></path><path d="M1309.5 414 a4.5 4.5 0 1 0 9 0 a4.5 4.5 0 1 0 -9 0zM1309.5 450 a4.5 4.5 0 1 0 9 0 a4.5 4.5 0 1 0 -9 0zM193.5 486 a4.5 4.5 0 1 0 9 0 a4.5 4.5 0 1 0 -9 0zM1309.5 378 a4.5 4.5 0 1 0 9 0 a4.5 4.5 0 1 0 -9 0zM1165.5 486 a4.5 4.5 0 1 0 9 0 a4.5 4.5 0 1 0 -9 0zM1129.5 486 a4.5 4.5 0 1 0 9 0 a4.5 4.5 0 1 0 -9 0zM1309.5 486 a4.5 4.5 0 1 0 9 0 a4.5 4.5 0 1 0 -9 0zM85.5 414 a4.5 4.5 0 1 0 9 0 a4.5 4.5 0 1 0 -9 0zM1093.5 486 a4.5 4.5 0 1 0 9 0 a4.5 4.5 0 1 0 -9 0zM157.5 486 a4.5 4.5 0 1 0 9 0 a4.5 4.5 0 1 0 -9 0z" fill="black"></path><path d="M1057.5 126 a4.5 4.5 0 1 0 9 0 a4.5 4.5 0 1 0 -9 0zM589.5 90 a4.5 4.5 0 1 0 9 0 a4.5 4.5 0 1 0 -9 0zM1237.5 162 a4.5 4.5 0 1 0 9 0 a4.5 4.5 0 1 0 -9 0zM481.5 234 a4.5 4.5 0 1 0 9 0 a4.5 4.5 0 1 0 -9 0zM265.5 90 a4.5 4.5 0 1 0 9 0 a4.5 4.5 0 1 0 -9 0zM445.5 126 a4.5 4.5 0 1 0 9 0 a4.5 4.5 0 1 0 -9 0zM409.5 126 a4.5 4.5 0 1 0 9 0 a4.5 4.5 0 1 0 -9 0zM949.5 90 a4.5 4.5 0 1 0 9 0 a4.5 4.5 0 1 0 -9 0z" fill="black"></path></mask></defs></svg>