<svg xmlns="http://www.w3.org/2000/svg" version="1.1" xmlns:xlink="http://www.w3.org/1999/xlink" xmlns:svgjs="http://svgjs.dev/svgjs" width="1440" height="566" preserveAspectRatio="none" viewBox="0 0 1440 566"><g mask="url(&quot;#SvgjsMask1009&quot;)" fill="none"><rect width="1440" height="566" x="0" y="0" fill="rgba(1, 17, 33, 1)"></rect><path d="M956.66 450.97L956.66 454.23L974.35 454.23L974.35 450.97zM968.57 452.6 a5.78 5.78 0 1 0 11.56 0 a5.78 5.78 0 1 0 -11.56 0zM952.55 474.92L951.3 477.94L978.12 489.05L979.37 486.03zM972.96 487.54 a5.78 5.78 0 1 0 11.56 0 a5.78 5.78 0 1 0 -11.56 0zM939.58 495.48L937.27 497.79L948.22 508.74L950.53 506.43zM943.6 507.59 a5.78 5.78 0 1 0 11.56 0 a5.78 5.78 0 1 0 -11.56 0zM919.73 509.51L916.71 510.76L923.06 526.08L926.08 524.83zM918.79 525.46 a5.78 5.78 0 1 0 11.56 0 a5.78 5.78 0 1 0 -11.56 0zM896.02 514.87L892.76 514.87L892.76 525.39L896.02 525.39zM888.61 525.39 a5.78 5.78 0 1 0 11.56 0 a5.78 5.78 0 1 0 -11.56 0zM872.07 510.76L869.05 509.51L861.14 528.6L864.16 529.85zM856.87 529.23 a5.78 5.78 0 1 0 11.56 0 a5.78 5.78 0 1 0 -11.56 0zM851.51 497.79L849.2 495.48L831.67 513.02L833.97 515.32zM827.04 514.17 a5.78 5.78 0 1 0 11.56 0 a5.78 5.78 0 1 0 -11.56 0zM837.48 477.94L836.23 474.92L815.84 483.37L817.09 486.38zM810.69 484.88 a5.78 5.78 0 1 0 11.56 0 a5.78 5.78 0 1 0 -11.56 0zM832.12 454.23L832.12 450.97L802.15 450.97L802.15 454.23zM796.37 452.6 a5.78 5.78 0 1 0 11.56 0 a5.78 5.78 0 1 0 -11.56 0zM836.23 430.27L837.48 427.26L816.34 418.51L815.09 421.52zM809.94 420.01 a5.78 5.78 0 1 0 11.56 0 a5.78 5.78 0 1 0 -11.56 0zM849.2 409.72L851.51 407.41L834.88 390.79L832.58 393.09zM827.95 391.94 a5.78 5.78 0 1 0 11.56 0 a5.78 5.78 0 1 0 -11.56 0zM869.05 395.69L872.07 394.44L862.93 372.4L859.92 373.65zM855.65 373.02 a5.78 5.78 0 1 0 11.56 0 a5.78 5.78 0 1 0 -11.56 0zM892.76 390.33L896.02 390.33L896.02 378.8L892.76 378.8zM888.61 378.8 a5.78 5.78 0 1 0 11.56 0 a5.78 5.78 0 1 0 -11.56 0zM916.71 394.44L919.73 395.69L930.04 370.78L927.03 369.53zM922.76 370.16 a5.78 5.78 0 1 0 11.56 0 a5.78 5.78 0 1 0 -11.56 0zM937.27 407.41L939.58 409.72L952.29 397L949.98 394.7zM945.36 395.85 a5.78 5.78 0 1 0 11.56 0 a5.78 5.78 0 1 0 -11.56 0zM951.3 427.26L952.55 430.27L978.69 419.44L977.44 416.43zM972.29 417.94 a5.78 5.78 0 1 0 11.56 0 a5.78 5.78 0 1 0 -11.56 0zM832.1 452.6 a62.29 62.29 0 1 0 124.58 0 a62.29 62.29 0 1 0 -124.58 0z" fill="#488fdb"></path><path d="M863.81 398.33 A61.294399999999996 61.294399999999996 0 0 1 956.68 453.12M956.68 453.12 A124.58879999999999 124.58879999999999 0 0 0 863.81 398.33" fill="#2672c3" fill-rule="nonzero"></path><path d="M890.19 406.63 a12.46 12.46 0 1 0 24.92 0 a12.46 12.46 0 1 0 -24.92 0zM921.6 476.99 a12.46 12.46 0 1 0 24.92 0 a12.46 12.46 0 1 0 -24.92 0zM845.02 473.53 a12.46 12.46 0 1 0 24.92 0 a12.46 12.46 0 1 0 -24.92 0zM941.7 448.46 a6.85 6.85 0 1 0 13.7 0 a6.85 6.85 0 1 0 -13.7 0zM923.82 421.75 a6.85 6.85 0 1 0 13.7 0 a6.85 6.85 0 1 0 -13.7 0zM833.31 441.71 a7.48 7.48 0 1 0 14.96 0 a7.48 7.48 0 1 0 -14.96 0zM859.36 433.72 a2.49 2.49 0 1 0 4.98 0 a2.49 2.49 0 1 0 -4.98 0zM905.93 507.27 a4.98 4.98 0 1 0 9.96 0 a4.98 4.98 0 1 0 -9.96 0zM922.97 444.42 a3.11 3.11 0 1 0 6.22 0 a3.11 3.11 0 1 0 -6.22 0zM862.73 413.26 a6.23 6.23 0 1 0 12.46 0 a6.23 6.23 0 1 0 -12.46 0z" fill="#2672c3" fill-rule="nonzero"></path><path d="M1038.82 180.08L1038.82 183.34L1061.08 183.34L1061.08 180.08zM1055.3 181.71 a5.78 5.78 0 1 0 11.56 0 a5.78 5.78 0 1 0 -11.56 0zM1034.7 204.03L1033.46 207.05L1052.46 214.92L1053.71 211.9zM1047.3 213.41 a5.78 5.78 0 1 0 11.56 0 a5.78 5.78 0 1 0 -11.56 0zM1021.73 224.59L1019.43 226.89L1032.13 239.59L1034.43 237.29zM1027.5 238.44 a5.78 5.78 0 1 0 11.56 0 a5.78 5.78 0 1 0 -11.56 0zM1001.88 238.62L998.87 239.86L1003.87 251.92L1006.88 250.67zM999.59 251.3 a5.78 5.78 0 1 0 11.56 0 a5.78 5.78 0 1 0 -11.56 0zM978.18 243.98L974.92 243.98L974.92 270.78L978.18 270.78zM970.77 270.78 a5.78 5.78 0 1 0 11.56 0 a5.78 5.78 0 1 0 -11.56 0zM954.22 239.86L951.21 238.62L941.42 262.25L944.43 263.5zM937.15 262.87 a5.78 5.78 0 1 0 11.56 0 a5.78 5.78 0 1 0 -11.56 0zM933.67 226.89L931.36 224.59L920.17 235.78L922.48 238.08zM915.55 236.93 a5.78 5.78 0 1 0 11.56 0 a5.78 5.78 0 1 0 -11.56 0zM919.64 207.05L918.39 204.03L896.24 213.21L897.48 216.22zM891.08 214.72 a5.78 5.78 0 1 0 11.56 0 a5.78 5.78 0 1 0 -11.56 0zM914.27 183.34L914.27 180.08L886.93 180.08L886.93 183.34zM881.15 181.71 a5.78 5.78 0 1 0 11.56 0 a5.78 5.78 0 1 0 -11.56 0zM918.39 159.38L919.64 156.37L906.81 151.06L905.57 154.07zM900.41 152.57 a5.78 5.78 0 1 0 11.56 0 a5.78 5.78 0 1 0 -11.56 0zM931.36 138.83L933.67 136.52L917.89 120.75L915.58 123.05zM910.96 121.9 a5.78 5.78 0 1 0 11.56 0 a5.78 5.78 0 1 0 -11.56 0zM951.21 124.8L954.22 123.55L942.77 95.89L939.75 97.14zM935.48 96.51 a5.78 5.78 0 1 0 11.56 0 a5.78 5.78 0 1 0 -11.56 0zM974.92 119.44L978.18 119.44L978.18 98.8L974.92 98.8zM970.77 98.8 a5.78 5.78 0 1 0 11.56 0 a5.78 5.78 0 1 0 -11.56 0zM998.87 123.55L1001.88 124.8L1012.06 100.22L1009.05 98.98zM1004.78 99.6 a5.78 5.78 0 1 0 11.56 0 a5.78 5.78 0 1 0 -11.56 0zM1019.43 136.52L1021.73 138.83L1029.08 131.48L1026.77 129.17zM1022.15 130.33 a5.78 5.78 0 1 0 11.56 0 a5.78 5.78 0 1 0 -11.56 0zM1033.46 156.37L1034.7 159.38L1055.47 150.78L1054.22 147.77zM1049.07 149.27 a5.78 5.78 0 1 0 11.56 0 a5.78 5.78 0 1 0 -11.56 0zM914.26 181.71 a62.29 62.29 0 1 0 124.58 0 a62.29 62.29 0 1 0 -124.58 0z" fill="rgba(171, 35, 86, 1)"></path><path d="M937.27 133.36 A61.294399999999996 61.294399999999996 0 0 1 1038.04 171.74M1038.04 171.74 A124.58879999999999 124.58879999999999 0 0 0 937.27 133.36" fill="#891c45" fill-rule="nonzero"></path><path d="M995.72 181.38 a12.46 12.46 0 1 0 24.92 0 a12.46 12.46 0 1 0 -24.92 0zM952.54 157.52 a12.46 12.46 0 1 0 24.92 0 a12.46 12.46 0 1 0 -24.92 0zM915.02 187.64 a11.21 11.21 0 1 0 22.42 0 a11.21 11.21 0 1 0 -22.42 0zM991.3 228.33 a9.34 9.34 0 1 0 18.68 0 a9.34 9.34 0 1 0 -18.68 0zM976.72 122.04 a2.49 2.49 0 1 0 4.98 0 a2.49 2.49 0 1 0 -4.98 0zM960.42 217.14 a9.97 9.97 0 1 0 19.94 0 a9.97 9.97 0 1 0 -19.94 0zM929.21 144.17 a6.85 6.85 0 1 0 13.7 0 a6.85 6.85 0 1 0 -13.7 0zM937.63 217.32 a4.98 4.98 0 1 0 9.96 0 a4.98 4.98 0 1 0 -9.96 0zM1009.6 148.78 a8.72 8.72 0 1 0 17.44 0 a8.72 8.72 0 1 0 -17.44 0zM977.2 186.07 a3.11 3.11 0 1 0 6.22 0 a3.11 3.11 0 1 0 -6.22 0z" fill="#891c45" fill-rule="nonzero"></path><path d="M296.32 481.09L296.32 483.42L317.95 483.42L317.95 481.09zM313.82 482.25 a4.13 4.13 0 1 0 8.26 0 a4.13 4.13 0 1 0 -8.26 0zM293.38 498.2L292.49 500.35L302.09 504.33L302.98 502.17zM298.4 503.25 a4.13 4.13 0 1 0 8.26 0 a4.13 4.13 0 1 0 -8.26 0zM284.11 512.88L282.47 514.53L292.67 524.73L294.32 523.08zM289.36 523.91 a4.13 4.13 0 1 0 8.26 0 a4.13 4.13 0 1 0 -8.26 0zM269.94 522.9L267.78 523.79L275.26 541.83L277.41 540.94zM272.2 541.39 a4.13 4.13 0 1 0 8.26 0 a4.13 4.13 0 1 0 -8.26 0zM253 526.73L250.67 526.73L250.67 542.38L253 542.38zM247.71 542.38 a4.13 4.13 0 1 0 8.26 0 a4.13 4.13 0 1 0 -8.26 0zM235.89 523.79L233.74 522.9L227.91 536.98L230.06 537.87zM224.85 537.43 a4.13 4.13 0 1 0 8.26 0 a4.13 4.13 0 1 0 -8.26 0zM221.21 514.53L219.56 512.88L214.67 517.77L216.31 519.42zM211.36 518.6 a4.13 4.13 0 1 0 8.26 0 a4.13 4.13 0 1 0 -8.26 0zM211.19 500.35L210.3 498.2L199.9 502.5L200.79 504.65zM196.22 503.58 a4.13 4.13 0 1 0 8.26 0 a4.13 4.13 0 1 0 -8.26 0zM207.36 483.42L207.36 481.09L186.07 481.09L186.07 483.42zM181.94 482.25 a4.13 4.13 0 1 0 8.26 0 a4.13 4.13 0 1 0 -8.26 0zM210.3 466.31L211.19 464.15L196.82 458.2L195.93 460.35zM192.25 459.28 a4.13 4.13 0 1 0 8.26 0 a4.13 4.13 0 1 0 -8.26 0zM219.56 451.62L221.21 449.97L211.58 440.34L209.93 441.99zM206.62 441.17 a4.13 4.13 0 1 0 8.26 0 a4.13 4.13 0 1 0 -8.26 0zM233.74 441.6L235.89 440.71L229.33 424.88L227.18 425.77zM224.13 425.32 a4.13 4.13 0 1 0 8.26 0 a4.13 4.13 0 1 0 -8.26 0zM250.67 437.77L253 437.77L253 416.94L250.67 416.94zM247.71 416.94 a4.13 4.13 0 1 0 8.26 0 a4.13 4.13 0 1 0 -8.26 0zM267.78 440.71L269.94 441.6L276.63 425.44L274.48 424.55zM271.42 425 a4.13 4.13 0 1 0 8.26 0 a4.13 4.13 0 1 0 -8.26 0zM282.47 449.97L284.11 451.62L288.76 446.98L287.11 445.33zM283.81 446.15 a4.13 4.13 0 1 0 8.26 0 a4.13 4.13 0 1 0 -8.26 0zM292.49 464.15L293.38 466.31L299.48 463.78L298.58 461.63zM294.9 462.7 a4.13 4.13 0 1 0 8.26 0 a4.13 4.13 0 1 0 -8.26 0zM207.34 482.25 a44.5 44.5 0 1 0 89 0 a44.5 44.5 0 1 0 -89 0z" fill="#488fdb"></path><path d="M276.64 519.2 A43.496 43.496 0 0 1 207.45 485.35M207.45 485.35 A88.992 88.992 0 0 0 276.64 519.2" fill="#2672c3" fill-rule="nonzero"></path><path d="M274.31 481.87 a8.9 8.9 0 1 0 17.8 0 a8.9 8.9 0 1 0 -17.8 0zM263.25 506.51 a8.9 8.9 0 1 0 17.8 0 a8.9 8.9 0 1 0 -17.8 0zM235.97 484.68 a8.9 8.9 0 1 0 17.8 0 a8.9 8.9 0 1 0 -17.8 0zM237 509.23 a6.67 6.67 0 1 0 13.34 0 a6.67 6.67 0 1 0 -13.34 0zM257.93 464.57 a7.12 7.12 0 1 0 14.24 0 a7.12 7.12 0 1 0 -14.24 0zM226.65 448.55 a5.34 5.34 0 1 0 10.68 0 a5.34 5.34 0 1 0 -10.68 0zM246.67 442.68 a4.89 4.89 0 1 0 9.78 0 a4.89 4.89 0 1 0 -9.78 0zM210.35 471.53 a8.9 8.9 0 1 0 17.8 0 a8.9 8.9 0 1 0 -17.8 0zM253.3 522.99 a3.11 3.11 0 1 0 6.22 0 a3.11 3.11 0 1 0 -6.22 0zM278.57 453.75 a3.11 3.11 0 1 0 6.22 0 a3.11 3.11 0 1 0 -6.22 0z" fill="#2672c3" fill-rule="nonzero"></path><path d="M1341.58 444.13L1341.58 447.86L1351.85 447.86L1351.85 444.13zM1345.25 446 a6.6 6.6 0 1 0 13.2 0 a6.6 6.6 0 1 0 -13.2 0zM1336.88 471.51L1335.45 474.96L1362.69 486.24L1364.11 482.79zM1356.8 484.52 a6.6 6.6 0 1 0 13.2 0 a6.6 6.6 0 1 0 -13.2 0zM1322.05 495L1319.42 497.64L1343.97 522.2L1346.61 519.56zM1338.69 520.88 a6.6 6.6 0 1 0 13.2 0 a6.6 6.6 0 1 0 -13.2 0zM1299.37 511.04L1295.92 512.46L1304.5 533.16L1307.94 531.73zM1299.62 532.44 a6.6 6.6 0 1 0 13.2 0 a6.6 6.6 0 1 0 -13.2 0zM1272.27 517.17L1268.55 517.17L1268.55 549.79L1272.27 549.79zM1263.81 549.79 a6.6 6.6 0 1 0 13.2 0 a6.6 6.6 0 1 0 -13.2 0zM1244.9 512.46L1241.45 511.04L1228.43 542.47L1231.88 543.89zM1223.56 543.18 a6.6 6.6 0 1 0 13.2 0 a6.6 6.6 0 1 0 -13.2 0zM1221.4 497.64L1218.77 495L1206.09 507.68L1208.73 510.32zM1200.81 509 a6.6 6.6 0 1 0 13.2 0 a6.6 6.6 0 1 0 -13.2 0zM1205.37 474.96L1203.95 471.51L1190.22 477.2L1191.64 480.64zM1184.33 478.92 a6.6 6.6 0 1 0 13.2 0 a6.6 6.6 0 1 0 -13.2 0zM1199.24 447.86L1199.24 444.13L1177.25 444.13L1177.25 447.86zM1170.65 446 a6.6 6.6 0 1 0 13.2 0 a6.6 6.6 0 1 0 -13.2 0zM1203.95 420.48L1205.37 417.04L1179.12 406.17L1177.69 409.61zM1171.8 407.89 a6.6 6.6 0 1 0 13.2 0 a6.6 6.6 0 1 0 -13.2 0zM1218.77 396.99L1221.4 394.36L1211.79 384.74L1209.15 387.38zM1203.87 386.06 a6.6 6.6 0 1 0 13.2 0 a6.6 6.6 0 1 0 -13.2 0zM1241.45 380.96L1244.9 379.53L1231.95 348.29L1228.51 349.71zM1223.63 349 a6.6 6.6 0 1 0 13.2 0 a6.6 6.6 0 1 0 -13.2 0zM1268.55 374.83L1272.27 374.83L1272.27 350.22L1268.55 350.22zM1263.81 350.22 a6.6 6.6 0 1 0 13.2 0 a6.6 6.6 0 1 0 -13.2 0zM1295.92 379.53L1299.37 380.96L1303.85 370.14L1300.41 368.71zM1295.53 369.43 a6.6 6.6 0 1 0 13.2 0 a6.6 6.6 0 1 0 -13.2 0zM1319.42 394.36L1322.05 396.99L1329.67 389.38L1327.03 386.74zM1321.75 388.06 a6.6 6.6 0 1 0 13.2 0 a6.6 6.6 0 1 0 -13.2 0zM1335.45 417.04L1336.88 420.48L1363.21 409.58L1361.78 406.13zM1355.89 407.86 a6.6 6.6 0 1 0 13.2 0 a6.6 6.6 0 1 0 -13.2 0zM1199.22 446 a71.19 71.19 0 1 0 142.38 0 a71.19 71.19 0 1 0 -142.38 0z" fill="rgba(35, 171, 54, 1)"></path><path d="M1213.96 402.62 A70.1936 70.1936 0 0 1 1336.15 418.66M1336.15 418.66 A142.3872 142.3872 0 0 0 1213.96 402.62" fill="#1c892b" fill-rule="nonzero"></path><path d="M1278.4 423.59 a14.24 14.24 0 1 0 28.48 0 a14.24 14.24 0 1 0 -28.48 0zM1200.72 459.88 a5.7 5.7 0 1 0 11.4 0 a5.7 5.7 0 1 0 -11.4 0zM1258.99 491.13 a14.24 14.24 0 1 0 28.48 0 a14.24 14.24 0 1 0 -28.48 0zM1263.04 392.6 a8.54 8.54 0 1 0 17.08 0 a8.54 8.54 0 1 0 -17.08 0zM1299.22 476.31 a8.54 8.54 0 1 0 17.08 0 a8.54 8.54 0 1 0 -17.08 0zM1205.25 419.77 a9.26 9.26 0 1 0 18.52 0 a9.26 9.26 0 1 0 -18.52 0zM1264.73 442.95 a2.85 2.85 0 1 0 5.7 0 a2.85 2.85 0 1 0 -5.7 0zM1332 436.11 a4.27 4.27 0 1 0 8.54 0 a4.27 4.27 0 1 0 -8.54 0zM1300.32 505.82 a2.85 2.85 0 1 0 5.7 0 a2.85 2.85 0 1 0 -5.7 0zM1238.21 419.39 a2.85 2.85 0 1 0 5.7 0 a2.85 2.85 0 1 0 -5.7 0z" fill="#1c892b" fill-rule="nonzero"></path><path d="M243.99 197.89L243.99 201.61L274.74 201.61L274.74 197.89zM268.14 199.75 a6.6 6.6 0 1 0 13.2 0 a6.6 6.6 0 1 0 -13.2 0zM239.29 225.26L237.86 228.71L253.15 235.04L254.58 231.6zM247.27 233.32 a6.6 6.6 0 1 0 13.2 0 a6.6 6.6 0 1 0 -13.2 0zM224.47 248.76L221.83 251.39L235.96 265.52L238.59 262.88zM230.68 264.2 a6.6 6.6 0 1 0 13.2 0 a6.6 6.6 0 1 0 -13.2 0zM201.78 264.79L198.34 266.21L206.06 284.85L209.5 283.42zM201.18 284.14 a6.6 6.6 0 1 0 13.2 0 a6.6 6.6 0 1 0 -13.2 0zM174.69 270.92L170.96 270.92L170.96 283.18L174.69 283.18zM166.22 283.18 a6.6 6.6 0 1 0 13.2 0 a6.6 6.6 0 1 0 -13.2 0zM147.31 266.21L143.87 264.79L131.92 293.62L135.37 295.05zM127.05 294.34 a6.6 6.6 0 1 0 13.2 0 a6.6 6.6 0 1 0 -13.2 0zM123.82 251.39L121.18 248.76L110.89 259.05L113.52 261.69zM105.6 260.37 a6.6 6.6 0 1 0 13.2 0 a6.6 6.6 0 1 0 -13.2 0zM107.79 228.71L106.36 225.26L91.64 231.36L93.07 234.8zM85.75 233.08 a6.6 6.6 0 1 0 13.2 0 a6.6 6.6 0 1 0 -13.2 0zM101.65 201.61L101.65 197.89L68.85 197.89L68.85 201.61zM62.25 199.75 a6.6 6.6 0 1 0 13.2 0 a6.6 6.6 0 1 0 -13.2 0zM106.36 174.24L107.79 170.79L94.07 165.11L92.64 168.55zM86.75 166.83 a6.6 6.6 0 1 0 13.2 0 a6.6 6.6 0 1 0 -13.2 0zM121.18 150.74L123.82 148.11L108.98 133.27L106.34 135.9zM101.06 134.58 a6.6 6.6 0 1 0 13.2 0 a6.6 6.6 0 1 0 -13.2 0zM143.87 134.71L147.31 133.29L140.23 116.2L136.79 117.63zM131.91 116.92 a6.6 6.6 0 1 0 13.2 0 a6.6 6.6 0 1 0 -13.2 0zM170.96 128.58L174.69 128.58L174.69 95.93L170.96 95.93zM166.22 95.93 a6.6 6.6 0 1 0 13.2 0 a6.6 6.6 0 1 0 -13.2 0zM198.34 133.29L201.78 134.71L212.63 108.52L209.19 107.09zM204.31 107.81 a6.6 6.6 0 1 0 13.2 0 a6.6 6.6 0 1 0 -13.2 0zM221.83 148.11L224.47 150.74L249.05 126.16L246.41 123.53zM241.13 124.85 a6.6 6.6 0 1 0 13.2 0 a6.6 6.6 0 1 0 -13.2 0zM237.86 170.79L239.29 174.24L268.47 162.15L267.05 158.7zM261.16 160.43 a6.6 6.6 0 1 0 13.2 0 a6.6 6.6 0 1 0 -13.2 0zM101.63 199.75 a71.19 71.19 0 1 0 142.38 0 a71.19 71.19 0 1 0 -142.38 0z" fill="rgba(35, 171, 54, 1)"></path><path d="M242.7 186.12 A70.1936 70.1936 0 0 1 149.83 267.13M149.83 267.13 A142.3872 142.3872 0 0 0 242.7 186.12" fill="#1c892b" fill-rule="nonzero"></path><path d="M125.2 191.34 a14.24 14.24 0 1 0 28.48 0 a14.24 14.24 0 1 0 -28.48 0zM211.19 179.7 a14.24 14.24 0 1 0 28.48 0 a14.24 14.24 0 1 0 -28.48 0zM119.9 231.59 a12.1 12.1 0 1 0 24.2 0 a12.1 12.1 0 1 0 -24.2 0zM167.31 154.39 a14.24 14.24 0 1 0 28.48 0 a14.24 14.24 0 1 0 -28.48 0zM184.76 248.71 a14.24 14.24 0 1 0 28.48 0 a14.24 14.24 0 1 0 -28.48 0zM196.47 216.33 a3.56 3.56 0 1 0 7.12 0 a3.56 3.56 0 1 0 -7.12 0zM138.74 151.09 a7.12 7.12 0 1 0 14.24 0 a7.12 7.12 0 1 0 -14.24 0zM169.11 219.06 a6.41 6.41 0 1 0 12.82 0 a6.41 6.41 0 1 0 -12.82 0zM187.85 196.45 a3.56 3.56 0 1 0 7.12 0 a3.56 3.56 0 1 0 -7.12 0zM102.68 190.39 a3.56 3.56 0 1 0 7.12 0 a3.56 3.56 0 1 0 -7.12 0z" fill="#1c892b" fill-rule="nonzero"></path><path d="M496.35 64.67L496.35 66.53L506.2 66.53L506.2 64.67zM502.9 65.6 a3.3 3.3 0 1 0 6.6 0 a3.3 3.3 0 1 0 -6.6 0zM493.99 78.36L493.28 80.08L502.42 83.87L503.13 82.14zM499.47 83.01 a3.3 3.3 0 1 0 6.6 0 a3.3 3.3 0 1 0 -6.6 0zM486.58 90.11L485.26 91.42L490.13 96.29L491.45 94.97zM487.49 95.63 a3.3 3.3 0 1 0 6.6 0 a3.3 3.3 0 1 0 -6.6 0zM475.24 98.12L473.52 98.84L477.24 107.82L478.96 107.1zM474.8 107.46 a3.3 3.3 0 1 0 6.6 0 a3.3 3.3 0 1 0 -6.6 0zM461.69 101.19L459.83 101.19L459.83 116.52L461.69 116.52zM457.46 116.52 a3.3 3.3 0 1 0 6.6 0 a3.3 3.3 0 1 0 -6.6 0zM448 98.84L446.28 98.12L441.54 109.58L443.26 110.29zM439.1 109.93 a3.3 3.3 0 1 0 6.6 0 a3.3 3.3 0 1 0 -6.6 0zM436.26 91.42L434.94 90.11L430.94 94.11L432.26 95.43zM428.3 94.77 a3.3 3.3 0 1 0 6.6 0 a3.3 3.3 0 1 0 -6.6 0zM428.24 80.08L427.53 78.36L423.43 80.06L424.14 81.78zM420.48 80.92 a3.3 3.3 0 1 0 6.6 0 a3.3 3.3 0 1 0 -6.6 0zM425.18 66.53L425.18 64.67L415.51 64.67L415.51 66.53zM412.21 65.6 a3.3 3.3 0 1 0 6.6 0 a3.3 3.3 0 1 0 -6.6 0zM427.53 52.85L428.24 51.12L416.38 46.21L415.67 47.93zM412.72 47.07 a3.3 3.3 0 1 0 6.6 0 a3.3 3.3 0 1 0 -6.6 0zM434.94 41.1L436.26 39.78L429.84 33.37L428.53 34.69zM425.88 34.03 a3.3 3.3 0 1 0 6.6 0 a3.3 3.3 0 1 0 -6.6 0zM446.28 33.08L448 32.37L445.47 26.25L443.75 26.97zM441.31 26.61 a3.3 3.3 0 1 0 6.6 0 a3.3 3.3 0 1 0 -6.6 0zM459.83 30.02L461.69 30.02L461.69 15.58L459.83 15.58zM457.46 15.58 a3.3 3.3 0 1 0 6.6 0 a3.3 3.3 0 1 0 -6.6 0zM473.52 32.37L475.24 33.08L477.98 26.46L476.26 25.75zM473.82 26.1 a3.3 3.3 0 1 0 6.6 0 a3.3 3.3 0 1 0 -6.6 0zM485.26 39.78L486.58 41.1L490.61 37.07L489.29 35.75zM486.65 36.41 a3.3 3.3 0 1 0 6.6 0 a3.3 3.3 0 1 0 -6.6 0zM493.28 51.12L493.99 52.85L501.37 49.79L500.65 48.07zM497.71 48.93 a3.3 3.3 0 1 0 6.6 0 a3.3 3.3 0 1 0 -6.6 0zM425.16 65.6 a35.6 35.6 0 1 0 71.2 0 a35.6 35.6 0 1 0 -71.2 0z" fill="rgba(171, 35, 86, 1)"></path><path d="M459.23 101.17 A34.5968 34.5968 0 0 1 430.69 46.56M430.69 46.56 A71.1936 71.1936 0 0 0 459.23 101.17" fill="#891c45" fill-rule="nonzero"></path><path d="M439.41 52.83 a7.12 7.12 0 1 0 14.24 0 a7.12 7.12 0 1 0 -14.24 0zM464.19 56.05 a7.12 7.12 0 1 0 14.24 0 a7.12 7.12 0 1 0 -14.24 0zM441.85 82.71 a7.12 7.12 0 1 0 14.24 0 a7.12 7.12 0 1 0 -14.24 0zM460.31 73.53 a1.42 1.42 0 1 0 2.84 0 a1.42 1.42 0 1 0 -2.84 0zM467.32 83.19 a7.12 7.12 0 1 0 14.24 0 a7.12 7.12 0 1 0 -14.24 0zM427.99 52.56 a2.14 2.14 0 1 0 4.28 0 a2.14 2.14 0 1 0 -4.28 0zM427.96 69.47 a5.7 5.7 0 1 0 11.4 0 a5.7 5.7 0 1 0 -11.4 0zM469.68 34.82 a2.49 2.49 0 1 0 4.98 0 a2.49 2.49 0 1 0 -4.98 0zM489.78 78.76 a1.78 1.78 0 1 0 3.56 0 a1.78 1.78 0 1 0 -3.56 0zM459.6 93.26 a1.78 1.78 0 1 0 3.56 0 a1.78 1.78 0 1 0 -3.56 0z" fill="#891c45" fill-rule="nonzero"></path><path d="M724.93 122.91L724.93 125.71L740.9 125.71L740.9 122.91zM735.95 124.31 a4.95 4.95 0 1 0 9.9 0 a4.95 4.95 0 1 0 -9.9 0zM721.4 143.44L720.33 146.03L738.7 153.63L739.77 151.05zM734.28 152.34 a4.95 4.95 0 1 0 9.9 0 a4.95 4.95 0 1 0 -9.9 0zM710.28 161.06L708.31 163.04L726.25 180.98L728.22 179zM722.28 179.99 a4.95 4.95 0 1 0 9.9 0 a4.95 4.95 0 1 0 -9.9 0zM693.27 173.09L690.69 174.16L694.85 184.22L697.44 183.15zM691.2 183.68 a4.95 4.95 0 1 0 9.9 0 a4.95 4.95 0 1 0 -9.9 0zM672.95 177.69L670.15 177.69L670.15 200.87L672.95 200.87zM666.6 200.87 a4.95 4.95 0 1 0 9.9 0 a4.95 4.95 0 1 0 -9.9 0zM652.42 174.16L649.83 173.09L641.38 193.51L643.96 194.57zM637.72 194.04 a4.95 4.95 0 1 0 9.9 0 a4.95 4.95 0 1 0 -9.9 0zM634.8 163.04L632.82 161.06L619.52 174.36L621.5 176.34zM615.56 175.35 a4.95 4.95 0 1 0 9.9 0 a4.95 4.95 0 1 0 -9.9 0zM622.77 146.03L621.7 143.44L601.94 151.63L603.01 154.21zM597.53 152.92 a4.95 4.95 0 1 0 9.9 0 a4.95 4.95 0 1 0 -9.9 0zM618.17 125.71L618.17 122.91L594.49 122.91L594.49 125.71zM589.54 124.31 a4.95 4.95 0 1 0 9.9 0 a4.95 4.95 0 1 0 -9.9 0zM621.7 105.17L622.77 102.59L605.64 95.5L604.57 98.08zM600.16 96.79 a4.95 4.95 0 1 0 9.9 0 a4.95 4.95 0 1 0 -9.9 0zM632.82 87.55L634.8 85.58L629.54 80.32L627.56 82.29zM623.6 81.3 a4.95 4.95 0 1 0 9.9 0 a4.95 4.95 0 1 0 -9.9 0zM649.83 75.53L652.42 74.46L649.76 68.05L647.18 69.12zM643.52 68.58 a4.95 4.95 0 1 0 9.9 0 a4.95 4.95 0 1 0 -9.9 0zM670.15 70.93L672.95 70.93L672.95 63.16L670.15 63.16zM666.6 63.16 a4.95 4.95 0 1 0 9.9 0 a4.95 4.95 0 1 0 -9.9 0zM690.69 74.46L693.27 75.53L699.19 61.25L696.6 60.18zM692.94 60.71 a4.95 4.95 0 1 0 9.9 0 a4.95 4.95 0 1 0 -9.9 0zM708.31 85.58L710.28 87.55L725.56 72.27L723.59 70.3zM719.63 71.28 a4.95 4.95 0 1 0 9.9 0 a4.95 4.95 0 1 0 -9.9 0zM720.33 102.59L721.4 105.17L731.62 100.94L730.55 98.36zM726.13 99.65 a4.95 4.95 0 1 0 9.9 0 a4.95 4.95 0 1 0 -9.9 0zM618.15 124.31 a53.4 53.4 0 1 0 106.8 0 a53.4 53.4 0 1 0 -106.8 0z" fill="rgba(171, 35, 86, 1)"></path><path d="M664.9 177.29 A52.3952 52.3952 0 0 1 628.93 92.14M628.93 92.14 A106.7904 106.7904 0 0 0 664.9 177.29" fill="#891c45" fill-rule="nonzero"></path><path d="M621.75 141.99 a5.34 5.34 0 1 0 10.68 0 a5.34 5.34 0 1 0 -10.68 0zM642.74 138.11 a2.67 2.67 0 1 0 5.34 0 a2.67 2.67 0 1 0 -5.34 0zM646.73 168.85 a3.74 3.74 0 1 0 7.48 0 a3.74 3.74 0 1 0 -7.48 0zM681.04 146.06 a10.68 10.68 0 1 0 21.36 0 a10.68 10.68 0 1 0 -21.36 0zM697.08 121.57 a5.34 5.34 0 1 0 10.68 0 a5.34 5.34 0 1 0 -10.68 0zM650.96 104.13 a10.68 10.68 0 1 0 21.36 0 a10.68 10.68 0 1 0 -21.36 0zM707.4 104.17 a3.2 3.2 0 1 0 6.4 0 a3.2 3.2 0 1 0 -6.4 0zM621.66 106.73 a4.81 4.81 0 1 0 9.62 0 a4.81 4.81 0 1 0 -9.62 0zM636.22 87.22 a4.81 4.81 0 1 0 9.62 0 a4.81 4.81 0 1 0 -9.62 0zM675.79 122.45 a3.74 3.74 0 1 0 7.48 0 a3.74 3.74 0 1 0 -7.48 0z" fill="#891c45" fill-rule="nonzero"></path><path d="M446.51 283.96L446.51 285.83L457.9 285.83L457.9 283.96zM454.6 284.89 a3.3 3.3 0 1 0 6.6 0 a3.3 3.3 0 1 0 -6.6 0zM444.16 297.65L443.45 299.37L452.62 303.17L453.33 301.45zM449.68 302.31 a3.3 3.3 0 1 0 6.6 0 a3.3 3.3 0 1 0 -6.6 0zM436.75 309.4L435.43 310.71L442.29 317.57L443.61 316.26zM439.65 316.91 a3.3 3.3 0 1 0 6.6 0 a3.3 3.3 0 1 0 -6.6 0zM425.41 317.41L423.69 318.13L428.15 328.92L429.88 328.2zM425.72 328.56 a3.3 3.3 0 1 0 6.6 0 a3.3 3.3 0 1 0 -6.6 0zM411.86 320.48L410 320.48L410 327.33L411.86 327.33zM407.63 327.33 a3.3 3.3 0 1 0 6.6 0 a3.3 3.3 0 1 0 -6.6 0zM398.17 318.13L396.45 317.41L390.34 332.17L392.06 332.88zM387.9 332.52 a3.3 3.3 0 1 0 6.6 0 a3.3 3.3 0 1 0 -6.6 0zM386.43 310.71L385.11 309.4L381.95 312.55L383.27 313.87zM379.31 313.21 a3.3 3.3 0 1 0 6.6 0 a3.3 3.3 0 1 0 -6.6 0zM378.41 299.37L377.7 297.65L365.69 302.62L366.41 304.34zM362.75 303.48 a3.3 3.3 0 1 0 6.6 0 a3.3 3.3 0 1 0 -6.6 0zM375.34 285.83L375.34 283.96L360.05 283.96L360.05 285.83zM356.75 284.89 a3.3 3.3 0 1 0 6.6 0 a3.3 3.3 0 1 0 -6.6 0zM377.7 272.14L378.41 270.42L367.89 266.06L367.17 267.78zM364.23 266.92 a3.3 3.3 0 1 0 6.6 0 a3.3 3.3 0 1 0 -6.6 0zM385.11 260.39L386.43 259.07L375.02 247.67L373.7 248.99zM371.06 248.33 a3.3 3.3 0 1 0 6.6 0 a3.3 3.3 0 1 0 -6.6 0zM396.45 252.37L398.17 251.66L396.15 246.78L394.43 247.5zM391.99 247.14 a3.3 3.3 0 1 0 6.6 0 a3.3 3.3 0 1 0 -6.6 0zM410 249.31L411.86 249.31L411.86 240.95L410 240.95zM407.63 240.95 a3.3 3.3 0 1 0 6.6 0 a3.3 3.3 0 1 0 -6.6 0zM423.69 251.66L425.41 252.37L429.32 242.92L427.6 242.21zM425.16 242.57 a3.3 3.3 0 1 0 6.6 0 a3.3 3.3 0 1 0 -6.6 0zM435.43 259.07L436.75 260.39L445.1 252.04L443.78 250.72zM441.14 251.38 a3.3 3.3 0 1 0 6.6 0 a3.3 3.3 0 1 0 -6.6 0zM443.45 270.42L444.16 272.14L454.67 267.79L453.95 266.06zM451.01 266.93 a3.3 3.3 0 1 0 6.6 0 a3.3 3.3 0 1 0 -6.6 0zM375.33 284.89 a35.6 35.6 0 1 0 71.2 0 a35.6 35.6 0 1 0 -71.2 0z" fill="rgba(171, 35, 86, 1)"></path><path d="M437.34 308.76 A34.5968 34.5968 0 0 1 377.08 295.91M377.08 295.91 A71.1936 71.1936 0 0 0 437.34 308.76" fill="#891c45" fill-rule="nonzero"></path><path d="M416.68 302.19 a7.12 7.12 0 1 0 14.24 0 a7.12 7.12 0 1 0 -14.24 0zM378.24 295.01 a7.12 7.12 0 1 0 14.24 0 a7.12 7.12 0 1 0 -14.24 0zM404.27 265.98 a7.12 7.12 0 1 0 14.24 0 a7.12 7.12 0 1 0 -14.24 0zM432.2 272.58 a5.7 5.7 0 1 0 11.4 0 a5.7 5.7 0 1 0 -11.4 0zM411.4 318.38 a1.78 1.78 0 1 0 3.56 0 a1.78 1.78 0 1 0 -3.56 0zM376.76 276.88 a4.27 4.27 0 1 0 8.54 0 a4.27 4.27 0 1 0 -8.54 0zM403.1 287.68 a6.05 6.05 0 1 0 12.1 0 a6.05 6.05 0 1 0 -12.1 0zM396.46 305.71 a5.34 5.34 0 1 0 10.68 0 a5.34 5.34 0 1 0 -10.68 0zM429.1 287.51 a1.78 1.78 0 1 0 3.56 0 a1.78 1.78 0 1 0 -3.56 0zM429.51 257.53 a1.42 1.42 0 1 0 2.84 0 a1.42 1.42 0 1 0 -2.84 0z" fill="#891c45" fill-rule="nonzero"></path><path d="M685.5 413.19L685.5 416.45L706.14 416.45L706.14 413.19zM700.36 414.82 a5.78 5.78 0 1 0 11.56 0 a5.78 5.78 0 1 0 -11.56 0zM681.38 437.14L680.13 440.15L696.99 447.14L698.24 444.13zM691.84 445.63 a5.78 5.78 0 1 0 11.56 0 a5.78 5.78 0 1 0 -11.56 0zM668.41 457.7L666.11 460L677.79 471.69L680.09 469.38zM673.16 470.53 a5.78 5.78 0 1 0 11.56 0 a5.78 5.78 0 1 0 -11.56 0zM648.56 471.73L645.55 472.97L653.03 491.05L656.05 489.8zM648.76 490.42 a5.78 5.78 0 1 0 11.56 0 a5.78 5.78 0 1 0 -11.56 0zM624.86 477.09L621.59 477.09L621.59 493.56L624.86 493.56zM617.44 493.56 a5.78 5.78 0 1 0 11.56 0 a5.78 5.78 0 1 0 -11.56 0zM600.9 472.97L597.89 471.73L592.3 485.21L595.31 486.46zM588.03 485.84 a5.78 5.78 0 1 0 11.56 0 a5.78 5.78 0 1 0 -11.56 0zM580.34 460L578.04 457.7L563.34 472.4L565.64 474.7zM558.71 473.55 a5.78 5.78 0 1 0 11.56 0 a5.78 5.78 0 1 0 -11.56 0zM566.32 440.15L565.07 437.14L555.3 441.19L556.55 444.2zM550.15 442.69 a5.78 5.78 0 1 0 11.56 0 a5.78 5.78 0 1 0 -11.56 0zM560.95 416.45L560.95 413.19L530.17 413.19L530.17 416.45zM524.39 414.82 a5.78 5.78 0 1 0 11.56 0 a5.78 5.78 0 1 0 -11.56 0zM565.07 392.49L566.32 389.48L555.7 385.08L554.45 388.1zM549.3 386.59 a5.78 5.78 0 1 0 11.56 0 a5.78 5.78 0 1 0 -11.56 0zM578.04 371.94L580.34 369.63L562.52 351.81L560.22 354.12zM555.59 352.96 a5.78 5.78 0 1 0 11.56 0 a5.78 5.78 0 1 0 -11.56 0zM597.89 357.91L600.9 356.66L593.12 337.87L590.1 339.12zM585.83 338.49 a5.78 5.78 0 1 0 11.56 0 a5.78 5.78 0 1 0 -11.56 0zM621.59 352.54L624.86 352.54L624.86 337.21L621.59 337.21zM617.44 337.21 a5.78 5.78 0 1 0 11.56 0 a5.78 5.78 0 1 0 -11.56 0zM645.55 356.66L648.56 357.91L659.63 331.2L656.61 329.95zM652.34 330.57 a5.78 5.78 0 1 0 11.56 0 a5.78 5.78 0 1 0 -11.56 0zM666.11 369.63L668.41 371.94L683.15 357.19L680.85 354.89zM676.22 356.04 a5.78 5.78 0 1 0 11.56 0 a5.78 5.78 0 1 0 -11.56 0zM680.13 389.48L681.38 392.49L704.38 382.97L703.13 379.95zM697.97 381.46 a5.78 5.78 0 1 0 11.56 0 a5.78 5.78 0 1 0 -11.56 0zM560.93 414.82 a62.29 62.29 0 1 0 124.58 0 a62.29 62.29 0 1 0 -124.58 0z" fill="rgba(35, 171, 54, 1)"></path><path d="M629.15 476.83 A61.294399999999996 61.294399999999996 0 0 1 566.5 389.06M566.5 389.06 A124.58879999999999 124.58879999999999 0 0 0 629.15 476.83" fill="#1c892b" fill-rule="nonzero"></path><path d="M574.91 377.87 a6.23 6.23 0 1 0 12.46 0 a6.23 6.23 0 1 0 -12.46 0zM644.78 461.94 a6.85 6.85 0 1 0 13.7 0 a6.85 6.85 0 1 0 -13.7 0zM625.79 374.22 a12.46 12.46 0 1 0 24.92 0 a12.46 12.46 0 1 0 -24.92 0zM636.61 407.13 a8.1 8.1 0 1 0 16.2 0 a8.1 8.1 0 1 0 -16.2 0zM565.89 437.1 a9.34 9.34 0 1 0 18.68 0 a9.34 9.34 0 1 0 -18.68 0zM659.24 390.55 a4.36 4.36 0 1 0 8.72 0 a4.36 4.36 0 1 0 -8.72 0zM597.35 439.83 a11.84 11.84 0 1 0 23.68 0 a11.84 11.84 0 1 0 -23.68 0zM574.18 402.46 a5.61 5.61 0 1 0 11.22 0 a5.61 5.61 0 1 0 -11.22 0zM602.22 360.3 a4.98 4.98 0 1 0 9.96 0 a4.98 4.98 0 1 0 -9.96 0zM600.05 389.22 a8.1 8.1 0 1 0 16.2 0 a8.1 8.1 0 1 0 -16.2 0z" fill="#1c892b" fill-rule="nonzero"></path></g><defs><mask id="SvgjsMask1009"><rect width="1440" height="566" fill="#ffffff"></rect></mask></defs></svg>