<?xml version="1.0" standalone="no"?><svg xmlns="http://www.w3.org/2000/svg" viewBox="0 0 1440 320"><path fill="#000b76" fill-opacity="1" d="M0,64L0,96L36.9,96L36.9,192L73.8,192L73.8,96L110.8,96L110.8,32L147.7,32L147.7,64L184.6,64L184.6,256L221.5,256L221.5,64L258.5,64L258.5,192L295.4,192L295.4,64L332.3,64L332.3,32L369.2,32L369.2,128L406.2,128L406.2,288L443.1,288L443.1,256L480,256L480,32L516.9,32L516.9,64L553.8,64L553.8,32L590.8,32L590.8,288L627.7,288L627.7,32L664.6,32L664.6,128L701.5,128L701.5,64L738.5,64L738.5,192L775.4,192L775.4,160L812.3,160L812.3,256L849.2,256L849.2,256L886.2,256L886.2,224L923.1,224L923.1,288L960,288L960,96L996.9,96L996.9,160L1033.8,160L1033.8,32L1070.8,32L1070.8,32L1107.7,32L1107.7,96L1144.6,96L1144.6,192L1181.5,192L1181.5,160L1218.5,160L1218.5,192L1255.4,192L1255.4,32L1292.3,32L1292.3,160L1329.2,160L1329.2,288L1366.2,288L1366.2,320L1403.1,320L1403.1,160L1440,160L1440,320L1403.1,320L1403.1,320L1366.2,320L1366.2,320L1329.2,320L1329.2,320L1292.3,320L1292.3,320L1255.4,320L1255.4,320L1218.5,320L1218.5,320L1181.5,320L1181.5,320L1144.6,320L1144.6,320L1107.7,320L1107.7,320L1070.8,320L1070.8,320L1033.8,320L1033.8,320L996.9,320L996.9,320L960,320L960,320L923.1,320L923.1,320L886.2,320L886.2,320L849.2,320L849.2,320L812.3,320L812.3,320L775.4,320L775.4,320L738.5,320L738.5,320L701.5,320L701.5,320L664.6,320L664.6,320L627.7,320L627.7,320L590.8,320L590.8,320L553.8,320L553.8,320L516.9,320L516.9,320L480,320L480,320L443.1,320L443.1,320L406.2,320L406.2,320L369.2,320L369.2,320L332.3,320L332.3,320L295.4,320L295.4,320L258.5,320L258.5,320L221.5,320L221.5,320L184.6,320L184.6,320L147.7,320L147.7,320L110.8,320L110.8,320L73.8,320L73.8,320L36.9,320L36.9,320L0,320L0,320Z"></path></svg>